<svg id="Layer_1" data-name="Layer 1" xmlns="http://www.w3.org/2000/svg" viewBox="0 0 713.18 194.46"><defs><style>.cls-1{fill:#2e3349;}.cls-2{fill:#ffdc4a;}.cls-3{fill:#1a7bec;}.cls-4{fill:#00dfb7;}</style></defs><title>rnp-logo-color</title><path class="cls-1" d="M353.06,25.25l2.18,13.81c9.19-14.77,21.55-17,33.64-17s24.21,4.84,30.74,11.38L406.31,59.14A29.5,29.5,0,0,0,385,51.4c-15.5,0-29.71,8.23-29.71,30.27v62.92H325.76V25.25Z"/><path class="cls-1" d="M527.25,144.6V82.14c0-18.16-9.93-31.95-28.8-31.95-18.16,0-30.5,15.26-30.5,33.42v61H438.69V25h26.39L467,41.23c12.11-11.87,24.21-17.91,39.22-17.91,28.08,0,50.68,21.06,50.68,58.58V144.6Z"/><path class="cls-1" d="M583.75,194.46V25.25h27.6l1.94,16.46C622.48,28.4,638.47,22.6,652,22.6c36.81,0,61.17,27.35,61.17,62.46S691.3,147.5,653,147.5c-12.58,0-31.23-3.88-39.71-17v63.91ZM683.73,85c0-18.65-12.58-33.89-33.89-33.89S616,66.41,616,85s13.81,33.89,33.89,33.89S683.8,103.69,683.8,85Z"/><path class="cls-2" d="M95.79,83.73a95.44,95.44,0,0,1,31.82-71.27,83.73,83.73,0,1,0,0,142.54A95.44,95.44,0,0,1,95.79,83.73Z"/><path class="cls-3" d="M179.46,83.73A95.44,95.44,0,0,1,147.6,155a83.73,83.73,0,1,0,0-142.54A95.44,95.44,0,0,1,179.46,83.73Z"/><path class="cls-4" d="M167.49,83.73a83.57,83.57,0,0,0-29.87-64,83.59,83.59,0,0,0,0,128.09A83.57,83.57,0,0,0,167.49,83.73Z"/></svg>