<svg id="Layer_1" data-name="Layer 1" xmlns="http://www.w3.org/2000/svg" viewBox="0 0 496.41 525.71"><defs><style>.cls-1{fill:#fff;}</style></defs><title>metanorma-logo-white</title><path class="cls-1" d="M442.86,306.91c-23.56,0-35.58,14.75-46.18,27.76-10.42,12.78-19.41,23.81-37.88,23.81a35.13,35.13,0,0,1-21.94-7.09,5.27,5.27,0,0,0,0-.62l-11.11-97.83-8.58-75.57v-.23a5.28,5.28,0,0,0-.12-.57,1.3,1.3,0,0,0-.14-.45,5.27,5.27,0,0,0-.25-.56,3.9,3.9,0,0,0-.19-.35,5.35,5.35,0,0,0-.4-.56l-.2-.24a5.32,5.32,0,0,0-.55-.53l-.19-.16a5.32,5.32,0,0,0-.65-.42l-.23-.13a5.28,5.28,0,0,0-.66-.27l-.36-.11a5.3,5.3,0,0,0-.59-.11l-.51-.05h-3.24V73.32a1.67,1.67,0,0,0,0-.5v-.06a5.3,5.3,0,0,0-1.07-2.69h0L255.31,2a5.55,5.55,0,0,0-8.49,0L194.41,70h0a5.3,5.3,0,0,0-1.07,2.69v.06c0,.17-.05.33-.05.5v99.31h-3.18a5.32,5.32,0,0,0-.63.12l-.3.09a5.27,5.27,0,0,0-.72.29l-.17.09a5.33,5.33,0,0,0-.71.46l-.14.11a5.36,5.36,0,0,0-.59.57l-.16.2a5.35,5.35,0,0,0-.42.6l-.18.32a5.28,5.28,0,0,0-.26.58c-.05.14-.1.29-.14.44a5.27,5.27,0,0,0-.13.57v.23L177,252.8l-11,96.35c-4.68-4.06-8.81-9.11-13.19-14.48-10.6-13-22.62-27.76-46.17-27.76S71,321.66,60.44,334.67c-1.73,2.12-3.45,4.24-5.23,6.3a5.36,5.36,0,0,0,8.11,7c1.84-2.13,3.63-4.33,5.42-6.52,10.41-12.78,19.41-23.81,37.88-23.81s27.46,11,37.86,23.81c10.6,13,22.62,27.76,46.17,27.76s35.58-14.75,46.18-27.76c10.41-12.78,19.4-23.81,37.87-23.81a39,39,0,0,1,9.45,1.1,5.34,5.34,0,0,0,1.6.47c7.3,2.2,12.9,6.57,18.08,12a5.36,5.36,0,0,0,2.36,2.58c2.14,2.42,4.24,5,6.41,7.64,10.61,13,22.63,27.76,46.19,27.76s35.58-14.75,46.18-27.76c10.42-12.78,19.41-23.81,37.88-23.81a5.36,5.36,0,0,0,0-10.71ZM270.33,286h-38l-18.65-32.31,18.79-32.55H269.9l18.94,32.8ZM195.59,183.34h1.68a5.31,5.31,0,0,0,1.36.2h5.79L223.1,215.9l-18.65,32.3H188.23Zm74.31,27.07H232.31L216.8,183.54h68.62ZM187,258.91h17.3L223,291.34l-18.72,32.43H179.64ZM297.9,248.2l-18.72-32.43,18.61-32.23h5.7a5.31,5.31,0,0,0,1.36-.2H307l7.37,64.86ZM251.06,14l41.52,54h-83ZM204,78.67h94.14v94H204Zm-28,277,2.4-21.14h26l9.25,16a35.21,35.21,0,0,1-23,8,36.28,36.28,0,0,1-14.65-2.9Zm52.5-21c-2.32,2.85-4.57,5.6-6.87,8.17l-7.92-13.72,18.72-32.43H270.3l6,10.31c-.52,0-1-.06-1.55-.06-23.56,0-35.58,14.72-46.18,27.73ZM290,309.3l-10.37-18,18.72-32.43h17.3l7.35,64.9H311.49C305.66,317.69,298.86,312.27,290,309.3Zm30.92,25.37-.15-.19h3.47l.56,4.89c-1.31-1.53-2.59-3.1-3.9-4.7Z" transform="translate(0 -0.03)"/><path class="cls-1" d="M271.73,141.19H230.39a5.36,5.36,0,0,0,0,10.71h41.34a5.36,5.36,0,1,0,.46-10.71Z" transform="translate(0 -0.03)"/><path class="cls-1" d="M271.73,119.75H230.39a5.36,5.36,0,0,0,0,10.71h41.34a5.36,5.36,0,1,0,.46-10.71Z" transform="translate(0 -0.03)"/><path class="cls-1" d="M230.39,109h41.34a5.36,5.36,0,1,0,.46-10.71h-41.8a5.36,5.36,0,0,0-.46,10.71Z" transform="translate(0 -0.03)"/><path class="cls-1" d="M346.73,146.43l53.44,43.08a5.36,5.36,0,0,0,6.72-8.34l-53.44-43.08a5.36,5.36,0,0,0-6.72,8.34Z" transform="translate(0 -0.03)"/><path class="cls-1" d="M350.09,100.18A5.32,5.32,0,0,0,353.45,99l53.44-43.08a5.36,5.36,0,0,0-6.72-8.34L346.73,90.66a5.36,5.36,0,0,0,3.36,9.53Z" transform="translate(0 -0.03)"/><path class="cls-1" d="M356.3,118.54a5.36,5.36,0,0,0,5.36,5.36h70.9a5.36,5.36,0,1,0,.46-10.71H361.66A5.36,5.36,0,0,0,356.3,118.54Z" transform="translate(0 -0.03)"/><path class="cls-1" d="M148.68,138.09,95.24,181.17A5.36,5.36,0,1,0,102,189.5h0l53.43-43.08a5.36,5.36,0,0,0-6.72-8.34Z" transform="translate(0 -0.03)"/><path class="cls-1" d="M95.24,55.91,148.68,99a5.36,5.36,0,0,0,6.72-8.34L102,47.58a5.36,5.36,0,0,0-6.94,8.17l.21.17Z" transform="translate(0 -0.03)"/><path class="cls-1" d="M69.57,123.9h70.9a5.36,5.36,0,0,0,0-10.71H69.57a5.36,5.36,0,0,0-.46,10.71Z" transform="translate(0 -0.03)"/><path class="cls-1" d="M51.78,470.36H44.55L39.78,432.1,26,458.36,12,432.1,7.23,470.36H0l6.8-50.63h5.86L26,444.83l13.16-25.1h5.93Z" transform="translate(0 -0.03)"/><path class="cls-1" d="M100.89,470.36H69.36V419.74h30.88V426H76.3v14.83h19V447h-19v17.14h24.59Z" transform="translate(0 -0.03)"/><path class="cls-1" d="M149.85,426H135.09v44.41h-6.94V426H113.4v-6.22h36.45Z" transform="translate(0 -0.03)"/><path class="cls-1" d="M199.68,470.36h-7.23l-4.85-13.67H168.22l-4.85,13.67h-7.23l18.15-50.63h7.23Zm-14.25-19.89-7.52-21.12-7.52,21.12Z" transform="translate(0 -0.03)"/><path class="cls-1" d="M254,470.36h-5.86l-26.54-40v40h-6.94V419.74h7.52L247,457.63v-37.9h7Z" transform="translate(0 -0.03)"/><path class="cls-1" d="M314.16,464.21q-6.94,7.16-17.94,7.16a26.39,26.39,0,0,1-10.09-1.88,22.6,22.6,0,0,1-7.88-5.32,24.27,24.27,0,0,1-5.13-8.28A30.29,30.29,0,0,1,271.28,445a29.79,29.79,0,0,1,1.88-10.85,24.75,24.75,0,0,1,5.17-8.28,22.7,22.7,0,0,1,7.88-5.32,27.61,27.61,0,0,1,20,0,22.8,22.8,0,0,1,7.92,5.35,24.45,24.45,0,0,1,5.17,8.32A30.08,30.08,0,0,1,321.18,445Q321.18,457,314.16,464.21Zm-5.06-33.63q-4.48-5.64-12.87-5.64a17.44,17.44,0,0,0-7.45,1.52,15.45,15.45,0,0,0-5.46,4.19A18.63,18.63,0,0,0,280,437a28.45,28.45,0,0,0,0,16.06,18.63,18.63,0,0,0,3.36,6.36,15.43,15.43,0,0,0,5.46,4.2,19,19,0,0,0,14.9,0,15.56,15.56,0,0,0,5.5-4.23,18.31,18.31,0,0,0,3.36-6.36,27.18,27.18,0,0,0,1.12-8q0-8.8-4.6-14.44Z" transform="translate(0 -0.03)"/><path class="cls-1" d="M374.91,470.36h-7.38l-11.21-19.74H345.69v19.74h-7.23V419.74h16.42a31.94,31.94,0,0,1,7.48.8,13.88,13.88,0,0,1,5.5,2.57,11.24,11.24,0,0,1,3.36,4.59,18.1,18.1,0,0,1,1.16,6.87,15.23,15.23,0,0,1-2.42,8.5,15.76,15.76,0,0,1-6.83,5.75Zm-20.1-45.06H345.7V444h10.92a9.32,9.32,0,0,0,3.29-.58,7.81,7.81,0,0,0,2.75-1.73,8.11,8.11,0,0,0,1.88-2.93,11.48,11.48,0,0,0,.69-4.16,8.87,8.87,0,0,0-2.6-6.83Q360,425.3,354.81,425.3Z" transform="translate(0 -0.03)"/><path class="cls-1" d="M440.22,470.36H433l-4.77-38.26-13.74,26.25-14-26.25-4.77,38.26h-7.23l6.8-50.63h5.86l13.31,25.1,13.16-25.1h5.93Z" transform="translate(0 -0.03)"/><path class="cls-1" d="M496.41,470.36h-7.23l-4.85-13.67H465l-4.85,13.67h-7.23L471,419.74h7.23Zm-14.25-19.89-7.52-21.12-7.52,21.12Z" transform="translate(0 -0.03)"/><path class="cls-1" d="M113.07,520.23l-2.86-7.3H101l-2.83,7.3h-2.7l9.07-23h2.24l9,23Zm-3.69-9.7-2.67-7.11q-.52-1.35-1.07-3.31a29.74,29.74,0,0,1-1,3.31l-2.7,7.11Z" transform="translate(0 -0.03)"/><path class="cls-1" d="M133.38,520.23H120.59V497.29h12.79v2.37H123.26V507h9.51v2.35h-9.51v8.44h10.12Z" transform="translate(0 -0.03)"/><path class="cls-1" d="M160,508.73a13.9,13.9,0,0,1-1.77,7.33,8.84,8.84,0,0,1-5,4l5.46,5.68H154.8l-4.47-5.18h-.86q-5.07,0-7.82-3.1t-2.75-8.75q0-5.6,2.76-8.69t7.85-3.08a9.77,9.77,0,0,1,7.72,3.14Q160,503.2,160,508.73Zm-18.28,0q0,4.66,2,7.07a8.11,8.11,0,0,0,11.47.06l.06-.06q2-2.4,1.95-7.08t-1.94-7a7,7,0,0,0-5.74-2.39,7.08,7.08,0,0,0-5.8,2.41q-2,2.39-2,7Z" transform="translate(0 -0.03)"/><path class="cls-1" d="M184,497.29v14.85a8.09,8.09,0,0,1-2.37,6.17,9.09,9.09,0,0,1-6.51,2.24,8.69,8.69,0,0,1-6.41-2.26,8.38,8.38,0,0,1-2.27-6.22V497.29h2.67v15a5.9,5.9,0,0,0,1.57,4.41,6.33,6.33,0,0,0,4.61,1.54,6.11,6.11,0,0,0,4.47-1.55,6,6,0,0,0,1.57-4.43v-15Z" transform="translate(0 -0.03)"/><path class="cls-1" d="M191.72,520.23V497.29h2.67v22.95Z" transform="translate(0 -0.03)"/><path class="cls-1" d="M209.35,520.23h-2.67V499.66h-7.27v-2.37h17.2v2.37h-7.27Z" transform="translate(0 -0.03)"/><path class="cls-1" d="M236.1,520.23l-2.86-7.3H224l-2.83,7.3h-2.7l9.07-23h2.24l9,23Zm-3.69-9.7-2.67-7.11q-.52-1.35-1.07-3.31a29.74,29.74,0,0,1-1,3.31l-2.7,7.11Z" transform="translate(0 -0.03)"/><path class="cls-1" d="M250.69,520.23H248V499.66h-7.27v-2.37H258v2.37h-7.27Z" transform="translate(0 -0.03)"/><path class="cls-1" d="M275.81,520.23H263V497.29h12.79v2.37H265.68V507h9.51v2.35h-9.51v8.44H275.8Z" transform="translate(0 -0.03)"/><path class="cls-1" d="M305.56,497.29h2.87l-8.27,22.95h-2.64l-8.22-23h2.83l5.27,14.85a41.64,41.64,0,0,1,1.44,5,41.53,41.53,0,0,1,1.48-5.07Z" transform="translate(0 -0.03)"/><path class="cls-1" d="M326,520.23H313.2V497.29H326v2.37H315.86V507h9.51v2.35h-9.51v8.44H326Z" transform="translate(0 -0.03)"/><path class="cls-1" d="M335.35,510.69v9.54h-2.67V497.29H339q4.22,0,6.24,1.62a5.86,5.86,0,0,1,2,4.87q0,4.55-4.61,6.15l6.23,10.31h-3.15l-5.56-9.54Zm0-2.29H339a6.32,6.32,0,0,0,4.14-1.12,4.18,4.18,0,0,0,1.32-3.37,3.83,3.83,0,0,0-1.34-3.28,7.27,7.27,0,0,0-4.31-1h-3.47Z" transform="translate(0 -0.03)"/><path class="cls-1" d="M371.48,497.29v14.85a8.09,8.09,0,0,1-2.37,6.17,9.09,9.09,0,0,1-6.51,2.24,8.69,8.69,0,0,1-6.41-2.26,8.38,8.38,0,0,1-2.27-6.22V497.29h2.67v15a5.9,5.9,0,0,0,1.57,4.41,6.33,6.33,0,0,0,4.61,1.54,6.11,6.11,0,0,0,4.47-1.55,6,6,0,0,0,1.57-4.43v-15Z" transform="translate(0 -0.03)"/><path class="cls-1" d="M389.32,520.23l-7.78-20.34h-.13q.22,2.42.22,5.74v14.6h-2.46V497.29h4l7.27,18.93h.13l7.33-18.93h4v23h-2.67V505.45q0-2.54.22-5.52h-.13l-7.85,20.31Z" transform="translate(0 -0.03)"/></svg>